<?xml version="1.0" encoding="UTF-8" standalone="no"?>
<svg xmlns="http://www.w3.org/2000/svg" xmlns:xlink="http://www.w3.org/1999/xlink" xml:space="preserve" width="56" height="42" overflow="visible" version="1.0" viewBox="0 0 256 256">
  <defs>
    <linearGradient id="n">
      <stop offset="0" stop-color="#4f4f4f"/>
      <stop offset="1" stop-color="#4f4f4f" stop-opacity="0"/>
    </linearGradient>
    <linearGradient id="r">
      <stop offset="0" stop-color="#fff"/>
      <stop offset="1" stop-color="#00f"/>
    </linearGradient>
    <linearGradient id="i">
      <stop offset="0" stop-color="#fff"/>
      <stop offset="1" stop-color="#e2e2e2"/>
    </linearGradient>
    <linearGradient id="k">
      <stop offset="0" stop-color="#868686"/>
      <stop offset="1" stop-color="#fff" stop-opacity="0"/>
    </linearGradient>
    <linearGradient id="q">
      <stop offset="0"/>
      <stop offset="1" stop-opacity="0"/>
    </linearGradient>
    <linearGradient id="o">
      <stop offset="0" stop-color="#fff" stop-opacity=".64705884"/>
      <stop offset="1" stop-color="#fff" stop-opacity="0"/>
    </linearGradient>
    <linearGradient id="m">
      <stop offset="0"/>
      <stop offset="1" stop-opacity="0"/>
    </linearGradient>
    <linearGradient id="l">
      <stop offset="0"/>
      <stop offset="1" stop-opacity="0"/>
    </linearGradient>
    <linearGradient id="v">
      <stop offset="0" stop-color="#fff"/>
      <stop offset="1" stop-color="#fff" stop-opacity="0"/>
    </linearGradient>
    <linearGradient id="j">
      <stop offset="0" stop-color="#a8a8a8" stop-opacity=".30252102"/>
      <stop offset="1" stop-color="#575288" stop-opacity="0"/>
    </linearGradient>
    <linearGradient id="t">
      <stop offset="0" stop-color="#fff"/>
      <stop offset="1" stop-color="#ff0"/>
    </linearGradient>
    <linearGradient id="u">
      <stop offset="0" stop-color="#fff"/>
      <stop offset="1" stop-color="red"/>
    </linearGradient>
    <linearGradient id="s">
      <stop offset="0" stop-color="#fff"/>
      <stop offset="1" stop-color="#090"/>
    </linearGradient>
    <linearGradient xlink:href="#a" id="w" x1="3.4775" x2="51.2155" y1="169.6973" y2="147.6879" gradientUnits="userSpaceOnUse"/>
    <linearGradient xlink:href="#b" id="x" x1="35.357399" x2="60.562599" y1="162.75391" y2="121.0075" gradientUnits="userSpaceOnUse"/>
    <linearGradient xlink:href="#c" id="y" x1="43.0308" x2="78.474297" y1="140.1709" y2="143.7153" gradientUnits="userSpaceOnUse"/>
    <linearGradient xlink:href="#d" id="z" x1="90.4814" x2="96.051102" y1="140.6104" y2="156.3912" gradientUnits="userSpaceOnUse"/>
    <linearGradient xlink:href="#e" id="A" x1="74.652298" x2="119.1534" y1="242.41409" y2="157.3495" gradientUnits="userSpaceOnUse"/>
    <linearGradient xlink:href="#f" id="B" x1="98.720703" x2="76.404404" y1="149.3438" y2="127.027" gradientUnits="userSpaceOnUse"/>
    <linearGradient xlink:href="#g" id="C" x1="64.857399" x2="93.527199" y1="134.54201" y2="163.2123" gradientUnits="userSpaceOnUse"/>
    <linearGradient xlink:href="#h" id="D" x1="89.454597" x2="125.4123" y1="199.5625" y2="183.13429" gradientUnits="userSpaceOnUse"/>
    <linearGradient xlink:href="#i" id="F" x1="61.744419" x2="92.175781" y1="40.639935" y2="93.348602" gradientUnits="userSpaceOnUse"/>
    <linearGradient xlink:href="#j" id="G" x1="127.73199" x2="87.753883" y1="112.91841" y2="23.566708" gradientUnits="userSpaceOnUse"/>
    <linearGradient xlink:href="#k" id="H" x1="90.20562" x2="99.978897" y1="37.204803" y2="46.956234" gradientUnits="userSpaceOnUse"/>
    <linearGradient xlink:href="#k" id="J" x1="90.20562" x2="99.978897" y1="37.204803" y2="46.956234" gradientUnits="userSpaceOnUse"/>
    <linearGradient xlink:href="#k" id="M" x1="90.20562" x2="99.978897" y1="37.204803" y2="46.956234" gradientUnits="userSpaceOnUse"/>
    <linearGradient xlink:href="#k" id="Q" x1="90.20562" x2="99.978897" y1="37.204803" y2="46.956234" gradientUnits="userSpaceOnUse"/>
    <linearGradient xlink:href="#k" id="T" x1="90.20562" x2="99.978897" y1="37.204803" y2="46.956234" gradientUnits="userSpaceOnUse"/>
    <linearGradient xlink:href="#l" id="V" x1="88.938957" x2="89.690857" y1="33.670578" y2="36.18634" gradientUnits="userSpaceOnUse"/>
    <linearGradient xlink:href="#m" id="W" x1="89.4543" x2="95.942055" y1="36.079742" y2="45.317894" gradientUnits="userSpaceOnUse"/>
    <linearGradient xlink:href="#n" id="X" x1="39.916809" x2="45.017914" y1="115.46555" y2="87.703705" gradientUnits="userSpaceOnUse"/>
    <linearGradient xlink:href="#o" id="aa" x1="35.059143" x2="51.300686" y1="14.036435" y2="42.463749" gradientUnits="userSpaceOnUse" spreadMethod="reflect"/>
    <radialGradient xlink:href="#p" id="E" cx="187.00101" cy="38.000999" r="47.3494" fx="187.00101" fy="38.000999" gradientUnits="userSpaceOnUse"/>
    <radialGradient xlink:href="#q" id="I" cx="90.20562" cy="37.403847" r="6.6905818" fx="90.20562" fy="37.403847" gradientTransform="matrix(1.7378083 -.1057186 .09704468 1.595224 -70.1843 -12.9263)" gradientUnits="userSpaceOnUse"/>
    <radialGradient xlink:href="#q" id="K" cx="90.20562" cy="37.403847" r="6.6905818" fx="90.20562" fy="37.403847" gradientTransform="matrix(1.7378083 -.1057186 .09704468 1.595224 -70.1843 -12.9263)" gradientUnits="userSpaceOnUse"/>
    <radialGradient xlink:href="#r" id="L" cx="90.035286" cy="39.33321" r="4.0634923" fx="90.035286" fy="39.33321" gradientTransform="matrix(2.375106 1.6437548 -1.7881304 2.5837181 -54.537112 -211.48007)" gradientUnits="userSpaceOnUse"/>
    <radialGradient xlink:href="#q" id="N" cx="90.20562" cy="37.403847" r="6.6905818" fx="90.20562" fy="37.403847" gradientTransform="matrix(1.7378083 -.1057186 .09704468 1.595224 -70.1843 -12.9263)" gradientUnits="userSpaceOnUse"/>
    <radialGradient xlink:href="#s" id="O" cx="90.035286" cy="39.33321" r="4.0634923" fx="90.035286" fy="39.33321" gradientTransform="matrix(2.375106 1.643755 -1.78813 2.583718 -54.53711 -211.4801)" gradientUnits="userSpaceOnUse"/>
    <radialGradient xlink:href="#t" id="P" cx="90.035286" cy="39.33321" r="4.0634923" fx="90.035286" fy="39.33321" gradientTransform="matrix(2.375106 1.643755 -1.78813 2.583718 -54.53711 -211.4801)" gradientUnits="userSpaceOnUse"/>
    <radialGradient xlink:href="#q" id="R" cx="90.20562" cy="37.403847" r="6.6905818" fx="90.20562" fy="37.403847" gradientTransform="matrix(1.7378083 -.1057186 .09704468 1.595224 -70.1843 -12.9263)" gradientUnits="userSpaceOnUse"/>
    <radialGradient xlink:href="#u" id="S" cx="90.035286" cy="39.33321" r="4.0634923" fx="90.035286" fy="39.33321" gradientTransform="matrix(2.375106 1.643755 -1.78813 2.583718 -54.53711 -211.4801)" gradientUnits="userSpaceOnUse"/>
    <radialGradient xlink:href="#q" id="U" cx="90.20562" cy="37.403847" r="6.6905818" fx="90.20562" fy="37.403847" gradientTransform="matrix(1.7378083 -.1057186 .09704468 1.595224 -70.1843 -12.9263)" gradientUnits="userSpaceOnUse"/>
    <radialGradient xlink:href="#o" id="Y" cx="41.676304" cy="84.284256" r="12.171351" fx="41.676304" fy="84.284256" gradientTransform="matrix(2.5245653 1.4930475 -1.0971545 2.6159593 17.194608 -187.09413)" gradientUnits="userSpaceOnUse"/>
    <radialGradient xlink:href="#v" id="Z" cx="3.666055" cy="88.579697" r="4.7645121" fx="3.666055" fy="88.579697" gradientTransform="matrix(2.0000001 .00000295 -.00000855 5.7387837 -3.6652989 -419.76004)" gradientUnits="userSpaceOnUse"/>
  </defs>
  <path fill="none" d="M-38.7020791-.502043h256v256h-256v-256z"/>
  <g stroke="#000" transform="translate(-38.7020791 -.502043)">
    <path stroke="none" d="m174.724.353-11.938 5.38s-7.688 11.375-8.131 12.032c-.542.463-15.639 13.358-15.639 13.358s17.902 18.972 20.162 21.367c.813 3.361 3.516 14.528 3.516 14.528l15.266 18.79 18.761 10.552s17.064-.989 17.196-.996c.134 0 19.308.165 19.308.165s5.523-13.597 6.208-15.285C240.622 79.357 256 67.905 256 67.905L243.536 42.45l-12.45-19.335-17.251-18.2s-21.303 1.39-22.226 1.45C190.667 5.992 175.507 0 175.507 0l-.783.353z" opacity=".2"/>
    <path fill="#7f7f7f" stroke="none" d="m167.603 1.663-11.938 5.38s-7.688 11.375-8.131 12.032c-.542.463-15.639 13.358-15.639 13.358s17.902 18.972 20.162 21.367c.813 3.361 3.516 14.528 3.516 14.528l15.266 18.79L189.6 97.67s17.064-.989 17.196-.996c.134 0 19.308.165 19.308.165s5.523-13.597 6.208-15.285c1.189-.886 16.567-12.338 16.567-12.338l-12.464-25.455-12.45-19.335-17.251-18.2s-21.303 1.39-22.226 1.45c-.942-.373-16.103-6.364-16.103-6.364l-.782.351z"/>
    <path fill="#999" stroke="none" d="m138.975 33.698 15.799 16.742 3.587 14.824 13.521 16.643 17.401 9.787 16.603-.961 17.856.152 5.838-14.371 13.799-10.277-9.31-19.014-11.854-18.41-15.706-16.571-21.513 1.403-15.722-6.215-11.331 5.108-7.922 11.722-11.046 9.438z"/>
    <path fill="#7f7f7f" stroke="none" d="m153.066 45.09 11.402 13.158 4.078 12.98 8.146 14.931 17.244 8.95 10.817-7.641 13.31.202-1.823-13.833 7.958-7.718.153-10.412-4.706-14.29-10.601-11.997-17.463-4.41-18.066-11.169-8.406 11.605-15.473 3.4 3.43 16.244z"/>
    <path fill="#999" stroke="none" d="m171.085 43.486 7.357 9.949 2.676 10.168 5.286 11.523 11.073 6.296 6.884-6.64 8.514-.497-1.236-10.962 5.052-6.559.047-8.328-3.082-11.184-6.843-9.058-11.192-2.66-11.613-8.029-5.32 9.69-9.879 3.483 2.276 12.808z"/>
    <path fill="#bfbfbf" stroke="none" d="m182.743 49.858-5.038 19.155 20.535 12.138 2.649 5.258-3.924 7.476-21.645-12.197-20.319-29.173 18.251-6.506-3.391-12.868 17.68 11.187-4.798 5.53z" opacity=".37000002"/>
    <path fill="#bfbfbf" stroke="none" d="m191.185 28.471-3.488 18.191 14.824 9.948 1.938 4.724-2.767 7.231-15.622-9.928-14.787-25.841 13.063-7.281-2.522-11.77 12.769 9.249-3.408 5.477z" opacity=".37000002"/>
    <path stroke="none" d="M141.97 110.192c-8.86-8.863-25.316-5.659-39.152 7.61-.055.053-.327.305-.327.305l-3.266 3.265c-7.427.051-17.326 6.09-25.773 13.779-15.817.401-35.312 1.195-44.376 2.748l-1.015.173-18.79 13.008 42.599 20.753c-.411 1.431-.631 2.91-.631 4.394v.007c.001 3.962 1.491 7.632 4.194 10.331l10.184 10.184c2.701 2.705 6.372 4.193 10.336 4.193 2.302-.003 4.593-.528 6.72-1.486l38.935 54.213 10.718-23.007v-1.029c0-14.801-5.522-52.009-8.319-69.904l10.072-10.075.251-.264c13.3-13.833 16.52-30.326 7.64-39.198z" opacity=".2"/>
    <linearGradient id="a" x1="3.4775" x2="51.2155" y1="169.6973" y2="147.6879" gradientUnits="userSpaceOnUse">
      <stop offset="0" stop-color="#3b3b3b"/>
      <stop offset="1" stop-color="#636363"/>
    </linearGradient>
    <path fill="url(#w)" stroke="none" d="M88.825 126.984c-2.107.014-51.789.367-68.02 3.146l-1.015.173L1 143.311l62.645 30.519 2.33-2.101c2.736-2.464 26.757-24.524 27.524-39.861l.245-4.915-4.919.031z"/>
    <linearGradient id="b" x1="35.357399" x2="60.562599" y1="162.75391" y2="121.0075" gradientUnits="userSpaceOnUse">
      <stop offset="0" stop-color="#ccc"/>
      <stop offset="1" stop-color="#fff"/>
    </linearGradient>
    <path fill="url(#x)" stroke="none" d="M62.863 168.276s25.299-22.792 25.992-36.643c0 0-51.222.333-67.265 3.079l-11.41 7.898 52.683 25.666z"/>
    <path stroke="none" d="m19.006 146.912 43.856 21.364s6.803-6.133 13.451-13.968c-13.367-9.525-31.831-13.662-57.307-7.396z" opacity=".5"/>
    <linearGradient id="c" x1="43.0308" x2="78.474297" y1="140.1709" y2="143.7153" gradientUnits="userSpaceOnUse">
      <stop offset="0" stop-color="#3b3b3b"/>
      <stop offset="1" stop-color="#636363"/>
    </linearGradient>
    <path fill="url(#y)" stroke="none" d="M133.699 102.424c-8.861-8.864-25.316-5.66-39.152 7.611-.055.051-.327.302-.327.302l-3.266 3.268c-8.339.056-19.799 7.655-28.815 16.671-9.269 9.27-17.035 21.119-16.649 29.507-1.618 2.636-2.522 5.645-2.522 8.677v.005c.001 3.964 1.491 7.634 4.194 10.331l10.184 10.186c2.701 2.702 6.372 4.193 10.336 4.191 4.361-.003 8.701-1.844 11.906-5.054l46.22-46.236.25-.261c13.301-13.835 16.521-30.325 7.641-39.198z"/>
    <linearGradient id="d" x1="90.4814" x2="96.051102" y1="140.6104" y2="156.3912" gradientUnits="userSpaceOnUse">
      <stop offset="0" stop-color="red"/>
      <stop offset="1" stop-color="#c00"/>
    </linearGradient>
    <path fill="url(#z)" stroke="none" d="m97.712 113.438.033-.028-.299.277L51.3 159.843c-4.554 4.553-4.938 11.584-.853 15.661l10.188 10.188c4.083 4.087 11.11 3.701 15.662-.86l46.145-46.152.248-.264c11.3-11.752 14.623-25.811 7.722-32.703-6.893-6.899-20.952-3.574-32.7 7.725z"/>
    <linearGradient id="e" x1="74.652298" x2="119.1534" y1="242.41409" y2="157.3495" gradientUnits="userSpaceOnUse">
      <stop offset="0" stop-color="#3b3b3b"/>
      <stop offset="1" stop-color="#636363"/>
    </linearGradient>
    <path fill="url(#A)" stroke="none" d="M108.565 138.338c-17.382 3.877-38.119 35.996-40.426 39.645l-1.675 2.651 46.874 65.265 10.719-23.005v-1.029c0-19.4-9.487-77.289-9.891-79.744l-.798-4.855-4.803 1.072z"/>
    <linearGradient id="f" x1="98.720703" x2="76.404404" y1="149.3438" y2="127.027" gradientUnits="userSpaceOnUse">
      <stop offset="0" stop-color="#fff"/>
      <stop offset="1" stop-color="#ccdeed"/>
    </linearGradient>
    <path fill="url(#B)" stroke="none" d="M127.33 103.517c-7.485-3.682-19.42.113-29.618 9.922l.033-.028-.299.277L51.3 159.843c-4.554 4.553-4.938 11.584-.853 15.661l9.124 9.125c4.042 1.885 9.299.921 12.958-2.746l46.144-46.155.25-.261c10.903-11.342 14.374-24.827 8.407-31.95z"/>
    <path fill="#fff" stroke="none" d="M63.993 147.146c19.936-7.665 38.393-16.035 45.193-22.836 6.601-6.602 9.117-14.635 9.709-22.059-6.579.672-14.277 4.544-21.183 11.188l.033-.028-.299.277-33.453 33.458z"/>
    <path fill="#c30" stroke="none" d="M65.428 133.563c-11.962 11.96-18.228 25.088-13.995 29.32 4.233 4.232 17.361-2.033 29.323-13.993 11.961-11.96 18.227-25.09 13.994-29.323-4.232-4.232-17.36 2.034-29.322 13.996z"/>
    <linearGradient id="g" x1="64.857399" x2="93.527199" y1="134.54201" y2="163.2123" gradientUnits="userSpaceOnUse">
      <stop offset=".0056" stop-color="#fff"/>
      <stop offset=".309" stop-color="#9cf"/>
      <stop offset="1" stop-color="#39f"/>
    </linearGradient>
    <path fill="url(#C)" stroke="none" d="M77.037 148.27c11.962-11.96 18.228-25.088 13.994-29.32-.262-.263-.559-.482-.886-.667-6.033.494-15.705 6.27-24.718 15.281-11.962 11.96-18.228 25.088-13.995 29.32.262.263.558.484.886.667 6.034-.491 15.706-6.268 24.719-15.281z"/>
    <path fill="#999" stroke="none" d="M114.319 140.131c-15.459-.928-48.752 35.581-44.676 44.786.487-.369.959-.775 1.406-1.223l43.588-43.621c-.107.019-.209.031-.318.058z"/>
    <linearGradient id="h" x1="89.454597" x2="125.4123" y1="199.5625" y2="183.13429" gradientUnits="userSpaceOnUse">
      <stop offset="0" stop-color="#ccc"/>
      <stop offset=".2966" stop-color="#d0d0d0"/>
      <stop offset=".5627" stop-color="#dadada"/>
      <stop offset=".8163" stop-color="#ededed"/>
      <stop offset="1" stop-color="#fff"/>
    </linearGradient>
    <path fill="url(#D)" stroke="none" d="M72.069 180.468s21.509-34.023 37.509-37.593c0 0 9.828 59.746 9.828 78.989l-6.928 14.868-40.409-56.264z"/>
    <path fill="#fff" stroke="none" d="M72.541 152.453c1.504-1.301 3.009-2.695 4.496-4.184 1.319-1.319 2.564-2.651 3.739-3.985-13.742 4.681-24.594 6.061-24.594 6.061l-1.006 5.852c5.117-1.965 11.669-3.095 17.365-3.744z" opacity=".5"/>
    <path fill="red" stroke="none" d="M64.843 158.289c-3.347-5.217-7.401-9.107-10.15-11.413-2.169 3.515-3.629 6.782-4.246 9.517l-.155 1.703 3.42 5.252c3.115-.598 6.977-2.359 11.131-5.059z"/>
    <path fill="#c00" stroke="none" d="M53.707 149.535c-.035-.028-.07-.053-.104-.082-3.246 6.057-4.109 11.098-1.775 13.432.262.262.558.483.886.666 2.453-.199 5.515-1.286 8.882-3.097-.977-3.447-3.773-7.49-7.889-10.919z"/>
    <path stroke="none" d="M85.382 162.342c-7.66 9.192-13.313 18.126-13.313 18.126l38.739 53.939c-1.409-19.217-6.652-51.683-25.426-72.065z" opacity=".5"/>
    <path fill="#fff" stroke="none" d="M91.031 118.949c-.262-.263-.559-.482-.886-.667-4.138.339-9.989 3.164-16.164 7.812 12.46-6.129 14.971-1.893 3.897 3.794-11.469 5.891-9.919 13.02.311 4.34 5.875-4.984 10.417-6.39 13.221-6.683 1.322-3.842 1.298-6.92-.379-8.596z" opacity=".6"/>
    <radialGradient id="p" cx="187.00101" cy="38.000999" r="47.3494" fx="187.00101" fy="38.000999" gradientUnits="userSpaceOnUse">
      <stop offset="0" stop-color="#fff"/>
      <stop offset="1"/>
    </radialGradient>
    <path fill="url(#E)" stroke="none" d="m138.975 33.698 15.799 16.742 3.587 14.824 13.521 16.643 17.401 9.787 16.603-.961 17.856.152 5.838-14.371 13.799-10.277-9.31-19.014-11.854-18.41-15.706-16.571-21.513 1.403-15.722-6.215-11.331 5.108-7.922 11.722-11.046 9.438z" opacity=".3"/>
    <path fill="none" stroke-dasharray="5 12" stroke-linecap="square" stroke-linejoin="round" stroke-width="4" d="m139.008 98.667 46.991-46.991" opacity=".2"/>
    <path fill="none" stroke="#fc0" stroke-dasharray="5 12" stroke-linecap="square" stroke-linejoin="round" stroke-width="4" d="m136.571 98.667 46.992-46.991"/>
    <path fill="none" stroke="red" stroke-dasharray="5 12" stroke-linecap="square" stroke-linejoin="round" stroke-width="4" d="m132.166 93.637 46.991-46.991"/>
  </g>
  <path fill="#696969" fill-rule="evenodd" d="M161.878035 80.432038c-1.7022225.1125429-3.091797 1.40425935-3.328125 3.09375-1.9806825 13.072482-2.111703 23.5683135 1.546875 32.953125 3.658578 9.3848115 11.0256975 17.217045 22.828125 25.21875 1.6568535 1.1131995 3.9024255.67248 5.015625-.984375 1.1131995-1.6568535.67248-3.9024255-.984375-5.015625-11.1558-7.5633105-17.1817125-14.213604-20.15625-21.84375-2.9745375-7.630146-3.026619-16.6993335-1.125-29.25.1769445-1.08450555-.1510605-2.1904449-.890679-3.0031116-.739617-.8126667-1.809867-1.24308075-2.906196-1.1687634z"/>
  <path fill="#fff" fill-rule="evenodd" stroke="#696969" stroke-dashoffset="10" stroke-linecap="round" stroke-linejoin="round" stroke-width="2.27200007" d="M57.982756 50.571808a9.0156116 10.606602 0 1 1-18.031224 0 9.0156116 10.606602 0 1 1 18.031224 0z" style="marker:none" transform="matrix(1.220334 0 0 1.087284 129.32109 92.995033)"/>
  <path fill="url(#F)" fill-rule="evenodd" d="m19.301587 63.322751 55.534392-24.042328c11.769016-25.542754 40.432781-16.654317 47.407411 4.740741 3.27504 13.159605-.46028 24.780241-11.51323 32.507937-4.40212 2.708994-53.502647 22.010582-56.211641 26.412699-29.821764 42.85929-71.423568-19.876452-35.216932-39.619049z" transform="matrix(1.5 0 0 1.5 106.565535 75.744538)"/>
  <path fill="url(#G)" fill-rule="evenodd" d="M53.429009 95.412094s-5.683937-23.114678 14.778236-27.661828C88.669419 63.203117 88.29049 26.44699 88.29049 26.44699s8.71537-5.305008 15.15717-1.515717c6.44179 3.789292 14.77823 9.0943 17.05181 15.536095 2.27357 6.441796 2.52649 15.408266 1.51571 20.462174-1.51571 7.578583-54.565793 23.114678-68.586171 34.482552z" transform="matrix(1.5 0 0 1.5 106.565535 75.744538)"/>
  <path fill="url(#H)" fill-rule="evenodd" stroke="url(#I)" stroke-dashoffset="10" stroke-linecap="round" stroke-linejoin="round" stroke-width="1.74830937" d="M99.638885 41.921432a6.1905818 6.4853716 0 1 1-12.381164 0 6.1905818 6.4853716 0 1 1 12.381164 0z" opacity=".33962265" style="marker:none" transform="matrix(1.5638655 0 0 1.5320512 113.0268765 99.04279)"/>
  <path fill="#b2cbcb" fill-rule="evenodd" d="M288.909285 148.916413c-.63756 9.645654.444345 16.7744175-7.03125 22.078125-20.596125 16.249962-47.8242135 20.6708895-71.015625 32.625-15.0783285 6.0457875-27.4799595 16.270824-38.953125 27.46875-13.0840485 11.50236-34.079061 12.31182-46.78125-.1875 4.1588955 6.843915 4.120248 19.802235 14.4720555 19.1232 9.158616 1.14813 18.727989 6.27138 27.1262565-.06216 8.1568005-2.608005 15.7761195-5.86953 19.2360345-14.339175 6.819381-9.85758 20.7428475-11.147682 30.6984315-17.2230255 22.1144835-10.560003 45.719982-18.4576815 64.922847-34.1553105 9.426945-4.5105045 7.03695-17.3705985 10.99071-25.761795 1.651755-2.6218065.365595-9.886527-3.665085-9.566109z"/>
  <path fill="#4f4f4f" fill-rule="evenodd" d="M251.690535 109.307038c-13.420668-.195849-26.9530845 7.2899805-35.15625 24.046875l-82.3125 35.671875-.140625.046875-.140625.046875c-14.4157068 7.860534-21.37628925 20.4380565-22.546875 33.328125-1.17058575 12.8900685 3.18121215 26.09235 10.828125 36.28125 7.646913 10.1889 18.730032 17.49543 31.21875 17.765625 12.488718.270195 25.821204-6.740805 37.40625-23.390625l.09375-.046875.046875-.09375c-.33582.545715 1.1330895-.98739 3.421875-2.34375s5.4872835-3.042645 9.234375-4.875c7.494183-3.664698 17.239419-8.003646 27.09375-12.28125 9.854331-4.277604 19.7929515-8.511633 27.703125-11.90625 3.95508-1.6973085 7.39164-3.198087 10.078125-4.40625 2.686485-1.208163 4.49133-2.0102895 5.71875-2.765625l.09375-.046875.09375-.046875c17.521665-12.2503125 23.668695-31.4191665 18.515625-52.125l-.046875-.09375-.046875-.09375c-5.58525-17.133054-19.775145-29.328447-35.296875-32.109375-1.940217-.347616-3.8948565-.533832-5.859375-.5625zm-.140625 4.03125c1.629243.0440895 3.296256.224373 4.921875.515625 12.946605 2.3195595 25.40502 12.756483 30.328125 27.609375 4.657725 18.715464-.319125 34.3996545-15.84375 45.328125-.047715.0335865-.092715.0602535-.140625.09375-.49896.2936175-2.33286 1.1536215-4.875 2.296875-2.621055 1.1787405-6.04263 2.6677935-9.984375 4.359375-7.8834795 3.3831615-17.8114215 7.5655485-27.703125 11.859375-9.8917035 4.2938265-19.710453 8.6738685-27.375 12.421875-3.8322735 1.874004-7.160562 3.6026295-9.703125 5.109375-2.4810645 1.4703-4.148589 2.281302-5.484375 4.359375-.033111.05151-.061056.087495-.09375.140625-10.7486895 15.377145-21.9532395 20.70207-32.015625 20.484375-10.09566-.218415-19.58715-6.23175-26.34375-15.234375-6.7565997-9.002628-10.6150599-20.8476345-9.609375-31.921875 1.0040577-11.0563215 6.616989-21.366441 19.3125-28.3125.0205755-.0112575.026262-.0356355.046875-.046875l83.015625-35.953125 1.125-.46875.515625-1.078125c7.316676-15.87966 18.5015535-21.871122 29.90625-21.5625z"/>
  <path fill="url(#J)" fill-rule="evenodd" stroke="url(#K)" stroke-dashoffset="10" stroke-linecap="round" stroke-linejoin="round" stroke-width="1.74830937" d="M99.638885 41.921432a6.1905818 6.4853716 0 1 1-12.381164 0 6.1905818 6.4853716 0 1 1 12.381164 0z" opacity=".33962265" style="marker:none" transform="matrix(1.5638655 0 0 1.5320512 101.0673012 74.36731195)"/>
  <path fill="#0b2e87" fill-rule="evenodd" d="M97.862435 41.48148a4.0634923 4.2328043 0 1 1-8.126985 0 4.0634923 4.2328043 0 1 1 8.126985 0z" style="marker:none" transform="matrix(1.5 0 0 1.5 106.83842895 76.1439928)"/>
  <path fill="url(#L)" fill-rule="evenodd" d="M97.862435 41.48148a4.0634923 4.2328043 0 1 1-8.126985 0 4.0634923 4.2328043 0 1 1 8.126985 0z" style="marker:none" transform="matrix(1.3639716 .2652711 -.2748096 1.3166288 130.6473105 58.398598)"/>
  <path fill="url(#M)" fill-rule="evenodd" stroke="url(#N)" stroke-dashoffset="10" stroke-linecap="round" stroke-linejoin="round" stroke-width="1.74830937" d="M99.638885 41.921432a6.1905818 6.4853716 0 1 1-12.381164 0 6.1905818 6.4853716 0 1 1 12.381164 0z" opacity=".33962265" style="marker:none" transform="matrix(1.5638655 0 0 1.5320512 124.6014735 77.7211651)"/>
  <path fill="#12870b" fill-rule="evenodd" d="M97.862435 41.48148a4.0634923 4.2328043 0 1 1-8.126985 0 4.0634923 4.2328043 0 1 1 8.126985 0z" style="marker:none" transform="matrix(1.5 0 0 1.5 130.0512885 79.4997604)"/>
  <path fill="url(#O)" fill-rule="evenodd" d="M97.862435 41.48148a4.0634923 4.2328043 0 1 1-8.126985 0 4.0634923 4.2328043 0 1 1 8.126985 0z" style="marker:none" transform="matrix(1.3639716 .2652711 -.2748096 1.3166288 153.860169 61.88057455)"/>
  <path fill="#87830b" fill-rule="evenodd" d="M97.862435 41.48148a4.0634923 4.2328043 0 1 1-8.126985 0 4.0634923 4.2328043 0 1 1 8.126985 0z" style="marker:none" transform="matrix(1.5 0 0 1.5 118.4592018 100.7246125)"/>
  <path fill="url(#P)" fill-rule="evenodd" d="M97.862435 41.48148a4.0634923 4.2328043 0 1 1-8.126985 0 4.0634923 4.2328043 0 1 1 8.126985 0z" style="marker:none" transform="matrix(1.3639716 .2652711 -.2748096 1.3166288 142.2053865 83.10542605)"/>
  <path fill="url(#Q)" fill-rule="evenodd" stroke="url(#R)" stroke-dashoffset="10" stroke-linecap="round" stroke-linejoin="round" stroke-width="1.74830937" d="M99.638885 41.921432a6.1905818 6.4853716 0 1 1-12.381164 0 6.1905818 6.4853716 0 1 1 12.381164 0z" opacity=".33962265" style="marker:none" transform="matrix(1.5638655 0 0 1.5320512 89.799957 94.3937545)"/>
  <path fill="#870b0c" fill-rule="evenodd" d="M97.862435 41.48148a4.0634923 4.2328043 0 1 1-8.126985 0 4.0634923 4.2328043 0 1 1 8.126985 0z" style="marker:none" transform="matrix(1.5 0 0 1.5 95.4271548 95.8605835)"/>
  <path fill="url(#S)" fill-rule="evenodd" d="M97.862435 41.48148a4.0634923 4.2328043 0 1 1-8.126985 0 4.0634923 4.2328043 0 1 1 8.126985 0z" style="marker:none" transform="matrix(1.3639716 .2652711 -.2748096 1.3166288 119.33132685 78.115189)"/>
  <path fill="url(#T)" fill-rule="evenodd" stroke="url(#U)" stroke-dashoffset="10" stroke-linecap="round" stroke-linejoin="round" stroke-width="1.74830937" d="M99.638885 41.921432a6.1905818 6.4853716 0 1 1-12.381164 0 6.1905818 6.4853716 0 1 1 12.381164 0z" opacity=".33962265" style="marker:none" transform="matrix(3.1893973 0 0 3.225052 -148.19491285 70.5137052)"/>
  <path fill="url(#V)" fill-rule="evenodd" stroke="url(#W)" stroke-dashoffset="10" stroke-linecap="round" stroke-linejoin="round" stroke-width=".61954653" d="M99.638885 41.921432a6.1905818 6.4853716 0 1 1-12.381164 0 6.1905818 6.4853716 0 1 1 12.381164 0z" opacity=".43396229" style="marker:none" transform="matrix(3.7134498 0 0 3.7549628 -197.8959156 48.97399827)"/>
  <path fill="#5a3792" fill-rule="evenodd" stroke="url(#X)" stroke-width=".639" d="M44.698413 87.703705a11.851851 13.883598 0 1 1-23.703703 0 11.851851 13.883598 0 1 1 23.703703 0z" style="marker:none" transform="matrix(1.528464 -.513972 .562278 1.3971516 50.53130083 100.79892212)"/>
  <path fill="url(#Y)" fill-rule="evenodd" d="M44.698413 87.703705a11.851851 13.883598 0 1 1-23.703703 0 11.851851 13.883598 0 1 1 23.703703 0z" opacity=".5534592" style="marker:none" transform="matrix(1.479251 -.4913177 .5441739 1.3355695 53.9751063 104.9406874)"/>
  <path fill="#fff" fill-rule="evenodd" d="m142.96205909 192.45840424-.13432913 9.35092286c-.00000157.00000147 4.72941852-3.32625544 6.35826046-3.45394467 1.6288435-.12768922 1.7910592-.12636352 1.7910592-.12636352l-8.01499053-5.77061467zm11.86576717 7.03425285c0-.00000147 3.5685638 4.44996268 3.71644909 5.98122104.14788685 1.53125542.13432912 1.68485091.13432912 1.68485091l6.08960064-7.5818291-9.94037885-.08424285zm-13.43294397 5.98122104-6.04482479 7.5818291 9.895603.04212069c-.00000156-.00000147-3.56856223-4.40784052-3.71644908-5.93909888-.1478853-1.53125983-.13432913-1.68485091-.13432913-1.68485091zm16.65685084 5.30727978c0-.00000294-4.72941696 3.32625692-6.35826046 3.45394467-1.62884038.12768628-1.7910592.126365-1.7910592.126365l8.01499053 5.7706132.13432913-9.35092287z" opacity=".32075471"/>
  <path fill="url(#Z)" fill-rule="evenodd" d="M11.875571 72.910545s-6.5975394 8.576801-2.9688926 19.462741c3.6286466 10.885944 4.2884006 18.802984 4.2884006 18.802984S4.6182777 98.311072 3.9585237 92.373286c-.6597539-5.937785-.3298769-12.865202 2.3091389-17.483479 2.6390158-4.618278 5.6079084-8.906679 5.6079084-8.906679v6.927417z" opacity=".27672957" transform="matrix(1.5 0 0 1.5 106.565535 75.744538)"/>
  <path fill="url(#aa)" fill-rule="evenodd" d="M36.875 3.125c-1.134815.0750286-2.061198.9361729-2.21875 2.0625-1.320455 8.714988-1.407802 15.712209 1.03125 21.96875s7.350465 11.47803 15.21875 16.8125c1.104569.742133 2.601617.44832 3.34375-.65625.742133-1.104569.44832-2.601617-.65625-3.34375C35.071499 29.758247 37.277057 18.328234 38.812464 3.9041756 38.319386 3.3623978 37.605886 3.0754551 36.875 3.125z" transform="matrix(1.5 0 0 1.5 106.565535 75.744538)"/>
</svg>